<svg xmlns="http://www.w3.org/2000/svg" viewBox="0 0 900 650"><defs><linearGradient id="b" x1="0" x2="1" y1="0" y2="1"><stop stop-color="#FAF6EF"/><stop offset=".55" stop-color="#F3E8D5"/><stop offset="1" stop-color="#FFFDF8"/></linearGradient></defs><rect width="900" height="650" fill="url(#b)"/><circle cx="760" cy="115" r="165" fill="#1F3B2D" opacity=".08"/><ellipse cx="420" cy="548" rx="290" ry="38" fill="#1F3B2D" opacity=".12"/><g><ellipse cx="330" cy="390" rx="128" ry="150" fill="#C98A4A"/><circle cx="330" cy="210" r="94" fill="#D49A5D"/><path d="M260 150 205 90c-8 58 12 101 60 135ZM400 150l60-60c8 58-12 101-60 135Z" fill="#D49A5D"/><circle cx="300" cy="206" r="12" fill="#20201D"/><circle cx="362" cy="206" r="12" fill="#20201D"/><ellipse cx="330" cy="242" rx="21" ry="15" fill="#6E382D"/></g><rect x="515" y="235" width="170" height="48" rx="24" fill="#1F3B2D"/><rect x="470" y="248" width="90" height="24" rx="12" fill="#C96F4A"/><path d="M500 285c-26 71-88 110-186 116" fill="none" stroke="#20201D" stroke-width="12" stroke-linecap="round" opacity=".38"/></svg>