<svg xmlns="http://www.w3.org/2000/svg" viewBox="0 0 1200 900"><defs><linearGradient id="b" x1="0" x2="1" y1="0" y2="1"><stop stop-color="#FAF6EF"/><stop offset=".55" stop-color="#F3E8D5"/><stop offset="1" stop-color="#FFFDF8"/></linearGradient></defs><rect width="1200" height="900" fill="url(#b)"/><circle cx="980" cy="150" r="250" fill="#1F3B2D" opacity=".08"/><ellipse cx="590" cy="790" rx="390" ry="46" fill="#1F3B2D" opacity=".12"/><g><ellipse cx="430" cy="560" rx="165" ry="210" fill="#C98A4A"/><circle cx="430" cy="335" r="126" fill="#D49A5D"/><path d="M342 265 250 175c-8 86 22 141 88 178ZM518 265l94-90c8 86-22 141-88 178Z" fill="#D49A5D"/><circle cx="386" cy="328" r="16" fill="#20201D"/><circle cx="474" cy="328" r="16" fill="#20201D"/><ellipse cx="430" cy="374" rx="28" ry="21" fill="#6E382D"/><path d="M316 495c76 48 153 48 228 0l-36 132H356Z" fill="#1F3B2D"/></g><g><ellipse cx="735" cy="580" rx="135" ry="180" fill="#B79D82"/><circle cx="735" cy="385" r="110" fill="#C7AE93"/><path d="M650 320 620 220l86 68ZM820 320l30-100-86 68Z" fill="#C7AE93"/><circle cx="697" cy="378" r="14" fill="#20201D"/><circle cx="773" cy="378" r="14" fill="#20201D"/><path d="M735 420l-22 28h44Z" fill="#6E382D"/><path d="M626 515c75 39 148 39 219 0l-30 112H656Z" fill="#F3E8D5"/></g></svg>