<svg xmlns="http://www.w3.org/2000/svg" viewBox="0 0 700 560"><defs><linearGradient id="b" x1="0" x2="1" y1="0" y2="1"><stop stop-color="#FAF6EF"/><stop offset=".6" stop-color="#F3E8D5"/><stop offset="1" stop-color="#FFFDF8"/></linearGradient></defs><rect width="700" height="560" fill="url(#b)"/><circle cx="570" cy="95" r="125" fill="#1F3B2D" opacity=".08"/><ellipse cx="350" cy="480" rx="210" ry="32" fill="#1F3B2D" opacity=".12"/><ellipse cx="350" cy="345" rx="125" ry="145" fill="#C98A4A"/><circle cx="350" cy="175" r="96" fill="#D49A5D"/><path d="M282 112 220 48c-8 70 16 114 64 148ZM418 112l64-64c8 70-16 114-64 148Z" fill="#D49A5D"/><circle cx="318" cy="172" r="12" fill="#20201D"/><circle cx="382" cy="172" r="12" fill="#20201D"/><ellipse cx="350" cy="208" rx="24" ry="17" fill="#6E382D"/><path d="M270 305c54 32 106 32 160 0l-28 100H298Z" fill="#1F3B2D"/></svg>