<svg xmlns="http://www.w3.org/2000/svg" viewBox="0 0 1000 760"><defs><linearGradient id="b" x1="0" x2="1" y1="0" y2="1"><stop stop-color="#FAF6EF"/><stop offset=".55" stop-color="#F3E8D5"/><stop offset="1" stop-color="#FFFDF8"/></linearGradient></defs><rect width="1000" height="760" fill="url(#b)"/><circle cx="850" cy="120" r="200" fill="#1F3B2D" opacity=".08"/><ellipse cx="520" cy="660" rx="360" ry="42" fill="#1F3B2D" opacity=".12"/><g><circle cx="270" cy="185" r="74" fill="#C18B65"/><path d="M190 170c20-88 134-112 180-20 13 26 12 61 2 95-85-38-146-32-182-75Z" fill="#3A2A22"/><path d="M165 330c-80 78-113 185-90 320h350c18-129-26-235-116-320-41 32-103 32-144 0Z" fill="#F3E8D5"/><path d="M140 450c120 82 256 80 360-20" fill="none" stroke="#1F3B2D" stroke-width="28" stroke-linecap="round" opacity=".22"/></g><g><ellipse cx="680" cy="500" rx="120" ry="142" fill="#C98A4A"/><circle cx="680" cy="330" r="95" fill="#D49A5D"/><path d="M610 270 550 205c-8 70 16 114 64 148ZM750 270l64-65c8 70-16 114-64 148Z" fill="#D49A5D"/><circle cx="648" cy="328" r="13" fill="#20201D"/><circle cx="712" cy="328" r="13" fill="#20201D"/><ellipse cx="680" cy="366" rx="24" ry="17" fill="#6E382D"/><path d="M595 455c58 36 112 36 170 0l-30 106H625Z" fill="#1F3B2D"/></g></svg>